<svg id="Layer_2" data-name="Layer 2" xmlns="http://www.w3.org/2000/svg" viewBox="0 0 362.41 349.36">
  
  <g id="Layer_1-2" data-name="Layer 1">
    <g>
      <path fill="#fff" fill-rule="evenodd" d="M349.63,217h-1.28c-1.83,0-1.54-.34-2,1.35-7.79,29.52-23.32,55.88-44.26,76.84-30.85,30.82-73.44,49.9-120.5,49.9s-89.67-19.08-120.5-49.9c-20.77-20.79-36.2-46.89-44.07-76.1-.6-2.24-.05-2.1-2.24-2.1h-.99c-2.17,0-1.78-.24-1.21,2,7.96,30.44,23.9,57.62,45.49,79.18,31.6,31.62,75.28,51.18,123.51,51.18s91.89-19.56,123.51-51.18c21.63-21.63,37.63-48.91,45.54-79.45.51-1.93.84-1.74-1.01-1.74ZM350.76,131.06c-7.89-30.7-23.93-58.15-45.66-79.88C273.49,19.56,229.83,0,181.59,0S89.67,19.56,58.08,51.18c-21.9,21.88-38.01,49.56-45.85,80.56-.12.51-.22.51.34.7s1.18.22,1.76.22c.63,0,1.06-.07,1.78-.29.39-.12.36-.05.46-.43.07-.22.12-.43.17-.65.1-.31.17-.63.27-.94,7.86-29.23,23.3-55.38,44.09-76.17C91.92,23.35,134.54,4.27,181.59,4.27s89.65,19.08,120.5,49.9c20.98,20.98,36.52,47.42,44.31,76.96.29,1.18.02,1.11,1.16,1.11h2.24c1.5,0,1.33.24.96-1.18Z"/>
      <path fill="#fffcf8" fill-rule="evenodd" d="M185.02,100.32c6.4,0,11.62-5.22,11.62-11.62s-5.22-11.62-11.62-11.62-11.62,5.22-11.62,11.62,5.22,11.62,11.62,11.62Z"/>
      <path fill="#fff" d="M75.13,156.07c2.03-2.24,4.49-3.98,7.33-5.21,2.87-1.21,6.08-1.83,9.62-1.83,3.3,0,6.22.34,8.71,1.01,2.53.68,4.68,1.42,6.49,2.19,1.81.8,3.26,1.54,4.34,2.22,1.09.68,1.88,1.01,2.36,1.01.36,0,.65-.1.89-.29.24-.17.46-.51.63-.96.17-.48.29-1.11.39-1.91.1-.8.14-1.74.14-2.82,0-1.88-.12-3.3-.34-4.27-.22-.96-.6-1.71-1.11-2.24-.51-.51-1.4-1.13-2.68-1.86-1.28-.72-2.89-1.37-4.82-2-1.95-.63-4.22-1.16-6.83-1.59-2.6-.43-5.47-.65-8.63-.65-5.76,0-11,.89-15.68,2.65-4.7,1.78-8.68,4.32-12.01,7.67-3.3,3.33-5.89,7.38-7.69,12.16-1.78,4.75-2.7,10.13-2.7,16.14s.84,10.97,2.53,15.56c1.71,4.56,4.15,8.44,7.36,11.63,3.21,3.18,7.11,5.62,11.72,7.31,4.61,1.66,9.84,2.51,15.68,2.51,2,0,4-.1,5.96-.29,1.98-.19,3.93-.48,5.89-.84,1.93-.36,3.81-.82,5.62-1.37,1.81-.51,3.33-1.01,4.56-1.52,1.21-.48,2.03-1.13,2.41-2,.41-.84.6-1.83.6-2.97v-29.09c0-.75-.1-1.42-.29-2-.19-.58-.46-1.11-.82-1.52-.36-.41-.77-.72-1.25-.92-.46-.22-.99-.31-1.59-.31h-24.7c-.34,0-.65.1-.89.31-.27.19-.51.53-.68.96-.19.43-.34.99-.43,1.71s-.14,1.59-.14,2.65c0,2.05.19,3.47.58,4.32.36.87.89,1.28,1.57,1.28h13.84v16.96c-1.4.75-2.89,1.33-4.51,1.69-1.62.39-3.28.58-4.92.58-3.4,0-6.49-.55-9.31-1.64-2.8-1.11-5.19-2.73-7.19-4.87-2-2.15-3.55-4.8-4.65-7.98-1.13-3.18-1.69-6.87-1.69-11.05,0-3.81.55-7.28,1.66-10.42,1.09-3.16,2.65-5.84,4.68-8.08Z"/>
      <path fill="#fff" d="M140.69,198.98v-46.12c-.58.51-1.37.68-2.15.48,0,.17-.02.39-.02.58-.02.41-.14.8-.36,1.13-1.33,2.05-2.53,4.05-3.59,6.05-1.04,2-1.93,4.05-2.6,6.25-.39,1.25-1.74,1.91-2.99,1.5-.82-.27-1.4-.94-1.62-1.71-1.09-3.5-1.4-7.24-.99-11,.41-3.83,1.59-7.69,3.42-11.24,1.28-2.53,2.97-4.92,4.92-7.09-.43,0-.94-.02-1.47-.02-1.42,0-2.63.05-3.59.17-.96.12-1.71.27-2.29.46-.55.17-.96.43-1.21.72-.24.31-.39.63-.39,1.01v66.4c0,1.66.43,2.85,1.28,3.57.87.75,1.91,1.11,3.16,1.11h32.63l.1-2.27c.02-.24.05-.75.07-1.52.07-1.42.14-2.75.17-3.96.05-1.37.07-2.7.1-3.93v-.58h-22.58Z"/>
      <path fill="#fff" d="M248.5,205.69l-22.6-64.78c-.22-.72-.51-1.3-.82-1.71-.34-.41-.84-.72-1.59-.92-.72-.22-1.76-.34-3.06-.41-1.33-.05-3.11-.07-5.31-.07-1.93,0-3.47.02-4.63.07-1.18.07-2.1.19-2.75.41-.68.19-1.16.51-1.45.89-.29.41-.58.92-.8,1.57l-22.53,64.86c-.46,1.33-.75,2.36-.87,3.16-.12.8.02,1.4.41,1.83.39.43,1.04.7,2.03.82.96.12,2.34.17,4.08.17,1.62,0,2.92-.05,3.91-.1,1.01-.07,1.78-.22,2.32-.43.55-.19.96-.48,1.21-.84s.43-.8.6-1.33l4.61-14.3h27.47l4.92,14.69c.14.48.34.89.55,1.18.22.31.63.55,1.18.72.58.17,1.4.27,2.46.34,1.09.05,2.58.07,4.51.07s3.28-.05,4.34-.14,1.78-.34,2.19-.72c.41-.41.58-.99.46-1.78-.12-.8-.39-1.86-.84-3.23ZM204.53,183.16l10.35-31.09h.05l10.35,31.09h-20.74Z"/>
      <path fill="#fff" d="M311.42,207.81c-.17-.48-.68-1.52-1.5-3.09l-21.88-33.04,20.07-26.27c.94-1.47,1.57-2.53,1.93-3.23.34-.68.51-1.33.51-1.95,0-.39-.12-.72-.34-1.04-.24-.29-.65-.55-1.23-.75-.58-.22-1.37-.36-2.34-.48-.99-.12-2.22-.17-3.74-.17s-2.68.02-3.62.12c-.92.07-1.71.19-2.32.39s-1.09.43-1.47.75c-.36.34-.7.72-.94,1.23l-21.42,31.07v-31.11c0-.41-.12-.77-.34-1.09-.24-.29-.63-.55-1.21-.72-.55-.19-1.3-.34-2.24-.46-.94-.12-2.15-.17-3.62-.17s-2.63.05-3.59.17c-.96.12-1.71.27-2.29.46-.55.17-.96.43-1.21.72-.24.31-.39.68-.39,1.09v68.86c0,.41.14.77.39,1.06.24.31.65.58,1.21.77.58.22,1.33.36,2.29.48.96.12,2.17.17,3.59.17s2.68-.05,3.62-.17c.94-.12,1.69-.27,2.24-.48.58-.19.96-.46,1.21-.77.22-.29.34-.65.34-1.06v-34.68l22.07,34.68c.29.53.65.99,1.11,1.35.48.39,1.25.68,2.32.84,1.09.19,2.85.29,5.28.29,1.57,0,2.85-.05,3.86-.17,1.01-.12,1.81-.27,2.39-.48.6-.19.99-.46,1.18-.8.22-.31.31-.68.31-1.09,0-.31-.07-.72-.24-1.23Z"/>
      <g>
        <path fill="#fff" d="M119.58,274.06l.2-.09c.23-.11.24-.27.25-.82v-.03s0-.03,0-.03c-.08-.52-.12-.76-.44-.77-.14,0-.33.05-.4.35-.05.15-.19.97.14,1.23l.25.18Z"/>
        <path fill="#fff" d="M172.93,240.42l-.02-.02c-.36-.27-.58-.46-.77-.63-.36-.34-.6-.55-1.54-.94-.43-.07-.84-.17-1.25-.24-.92-.22-1.88-.41-2.99-.43-6.05-.36-11.6,7.69-14.37,12.52-1.69,2.65-3.26,5.62-4.92,9.41.1-.31.17-.6.27-.89.14-.53.29-1.01.43-1.5.6-2.53,1.28-5.19,2.19-7.36.14-.34.34-.7.53-1.09.6-1.18,1.28-2.51.84-3.69-.24-.65-.8-1.18-1.69-1.57l-.12-.05c-.1,0-.43-.14-.65-.24-.65-.29-1.09-.48-1.42-.39-.14,0-.43-.02-.53-.02-.43-.19-.63-.07-1.16.22l-.14.07c-.99.48-1.09.8-1.09,1.42v.19c-.53,1.11-2.1,6.54-2.68,8.56-1.62,5.19-2.85,10.93-3.93,18.04-.02.58-.14,1.33-.24,2.05-.14.96-.31,1.98-.27,2.8.02.07.02.1,0,.12-.05.12-.1.24-.05.46-.12.14-.1.34-.05.53-.07.1-.1.27-.05.51-.12.12-.07.29-.02.46-.14.17-.14.41-.14.55,0,.17-.02.39-.07.6-.05.27-.1.53-.05.77-.05.07-.07.17-.07.24,0,.02.02.07.02.1-.12.17-.1.36-.07.58,0,.05.02.14.02.19-.1.17-.07.34-.05.46l.02.12s-.02.24-.05.34c-.05.19-.1.41-.07.55-.05,1.01-.1,2.03-.14,3.01-.07,1.25-.14,2.51-.19,3.76-.63.39-1.62.94-1.78.99-.24,0-.63.14-.89.31-.1.07-.43.22-.7.34l-.34.14c-1.5.41-2.89.34-3.55-.22-.41-.39-1.45-1.88-2.12-3.11-.07-.27-.17-.48-.27-.72-.12-.34-.27-.68-.41-1.16-.84-2.36-1.52-6.75-1.57-10.18-.05-3.01.07-6.01.17-7.36-.02-.14,0-.55.02-.89,0-.22.02-.46.02-.65,0-.22.02-.46.02-.68.02-.34.05-.65.02-.87.07-.34.12-1.04.12-1.71,0-.48.02-.89.05-1.18.02-.19.02-.27.02-.27.12-1.74.17-2.68.17-3.14l.07-.6.29-.07c.53-.22,3.91-.41,5.09-.24,1.71.17,2,.34,2.03.34.02.07.05.34-.39,1.45-.1.29-.27.65-.31.77l-.05.07s-.12.14-.19.34c-.02.05-.05.1-.1.14-.1.17-.27.41-.48.65-.24.39-.41.7-.41.7l-.1.17.12.19c.31.41.75.19,1.16-.02l.12-.07s.05-.07.07-.1h.02c.12,0,.24-.07.34-.14.02.02.02.05.05.07.14.22.34.24.41.22l.12.05.1-.12s.05-.02.14-.02c.53-.02,1.4-1.01,1.64-1.47.05-.17.1-.31.22-.46.17-.17.29-.72.34-.94.12-.29.17-.6.22-.84,0-.1.02-.19.05-.29.1-.43,0-.63-.36-1.06-.22-.41-.48-.75-.75-.94-.07-.05-.27-.29-.39-.43-.55-.94-1.81-1.74-3.26-2.07l-.05-.02h-.05c-.12.05-.36-.05-.48-.1l-.17-.05s-.07,0-.12-.02c-.14-.02-.31-.05-.51-.05-.14-.02-.27-.02-.41-.05-.12-.02-.24-.02-.29-.05l-.07-.05-.1.02c-.17.02-2.07-.07-2.99-.14h-.02c.02-.55.07-1.13.1-1.28.07-.17.12-.43.14-.84l.02-.12c.05-.36.1-.68.12-.96.02-.31.07-.58.12-.84.02-.14.05-.31.07-.48s.05-.31.07-.46c.02-.1.05-.22.05-.34.02-.24.07-.55.17-.84.05-.58.07-.8.05-.92,0-.05,0-.12.02-.19,0-.1.02-.19,0-.29.02-.1.05-.19.05-.31.05-.22.07-.46.17-.75l.02-.34c.02-.22.05-.46.07-.6.12-.17.17-.43.22-.7l.05-.22-.02-.05c0-.12.02-.31.05-.53.02-.19.05-.43.05-.63.02-.12.05-.24.07-.39.02-.27.07-.53.07-.75,0-.07.02-.17.05-.29.02-.19.07-.41.14-.58l.05-.39c.02-.24.05-.55.1-.65.05-.19.12-.46.1-.7.14-.27.27-.75.29-1.01.02-.19.05-.39.07-.55.05-.14.05-.24.07-.31.07-.19.1-.43.14-.84v-.05c.05-.24.1-.46.12-.63.02-.12.05-.27.02-.27l.1-.12-.02-.17c0-.12.02-.48.07-.68.02-.1.05-.19.05-.31.05-.17.07-.36.1-.46.07-.14.17-.53.12-.75-.02-.27.02-.63.05-.7.19-.12.19-.43.22-.6v-.29c.02-.1.05-.24.05-.41.02-.27.07-.58.14-.84.17-.89.07-4.08-.14-4.85-.27-1.01-.7-1.88-1.21-2.39-.17-.14-.27-.34-.29-.36-.05-.39-.51-.68-.84-.65-.07,0-.19,0-.31-.02-.17-.1-.46-.24-1.01-.46-.24-.05-.6-.17-.82-.27-.22-.24-.55-.36-.96-.34-.12,0-.29,0-.43-.02-.19-.02-.41-.02-.58-.02l-.68.05h-.12c-.12.05-.24.1-.34.19-.12-.05-.24-.05-.36,0-.17.05-.24.17-.29.27-.22.02-.75.12-4.68,3.81-.17-.05-.48-.05-1.21,1.42-.05.12-.24.46-.51.77-.22.31-.6.77-.89,1.11-.27.36-.51.65-.6.8-.29.48-.7.96-.89,1.18-.1.17-.46.68-.82,1.21-.53.8-.87,1.28-.99,1.5-.12.1-.43.46-.63.84-.51.8-.6,1.04-.68,1.23l-.12.14s-.17.22-1.93,3.09l-.05.12c-.02.14-.27.53-.46.82l-.22.31q-.6,1.09-1.01,1.78c-.31.7-.77,1.47-.99,1.81l-.07.12.02.05s-.05.05-.07.07l-.1.12.02.1s-.1.14-.14.24c-.07.1-.14.22-.19.31-.46.8-.96,1.78-1.52,2.89l-.1.17c-.12.24-.31.65-.43.77l-.05.1c-.17.34-.36.8-.6,1.28-.19.41-.39.84-.53,1.16-.29.39-.43.8-.46.84-.43.82-2.94,6.32-3.45,7.55-.19.48-.41.96-.6,1.4-.24.55-.46,1.04-.55,1.37-.07.19-.14.24-.53.43-.22.07-.43.14-.6.22-.1.05-.17.07-.19.1l-.17-.02-.1.12c-.14,0-.34.07-.75.24l-.1.05c-.14.12-.48.27-.8.39-.14.07-.29.14-.41.19-.82.31-1.11.43-1.95.87-.22.1-.58.29-.77.43-2.89,1.25-6.51,3.28-7.12,4.24-.05.07-.1.14-.12.14l-.14.02-.36.41.02.17c0,.1-.14.36-.19.48-.34.39-.51,1.01-.43,1.52.05.29.19.53.39.68.02.02.05.07.07.1-.07.29.05.55.31.77.05.02.1.1.17.14.1.12.24.24.36.36.29.39.89.8,1.33.8h.02l.12-.05s.27-.1.48-.19c.29-.12.53-.22.72-.31.29-.05.58-.29.68-.41.07-.07.51-.43.94-.75.43-.34.77-.65.8-.65.36-.34,2.63-1.69,4.56-2.73.31-.17.58-.29.77-.39-.07.19-.14.39-.17.53l-.1.07.05.14s-.05.12-.07.22c-.05.14-.1.29-.1.39-.02.05-.05.1-.05.17-.02.02-.02.07-.05.12l-.07.07c-.17.19-.14.48-.12.53,0,.02-.02.1-.05.12l-.12.07.02.17c0,.07-.07.36-.14.55-.27.55-.27.58-.58,1.5-.43,1.01-.46,1.04-.68,2.1-.12.46-.27.84-.29.92l-.12.05.02.17s-.02.1-.05.14c-.05.14-.1.29-.12.48-.05.43-.1.58-.1.6l-.1.1.02.14c0,.07-.07.24-.1.34l-.05.07.02.07s-.02.19-.05.22l-.05.07-.02.1c-.02.1-.07.31-.12.53-.17.63-.19.72-.17.84,0,.02,0,.05.02.07l-.05.05c-.14.19-.14.55-.14.72-.05.14-.1.36-.14.53l-.05.19c-.17.63-.24,1.3-.34,1.98v.12c-.1.34-.12.65-.17.92,0,.12-.02.24-.05.34-.07.7-.1,1.95,0,2.6.12.72.43,1.3.87,1.62.27.17.58.24.82.19.05,0,.29.24.39.34.27.29.58.55.72.65l.14.07c.58.14,1.42.31,1.93.29,1.23-.07,1.3-1.13,1.28-2.29,0-1.42.19-2.53.36-3.4.07-.24.19-.84.22-1.21.02-.19.07-.39.1-.53.02-.12.05-.22.07-.29.05-.1.07-.24.12-.36.02-.07.02-.14.05-.19l.02-.1v-.07s.02-.17.05-.24c.02-.14.05-.29.05-.41.02-.14.07-.34.1-.55l.05-.17s.05-.14.07-.24h.27l-.1-.51c.07-.19.17-.58.27-.96.1-.43.19-.84.24-1.01.1-.12.12-.31.17-.6l.02-.14c.07-.22.17-.51.19-.72.1-.17.14-.36.14-.53.05-.14.12-.24.12-.27l.07-.02-.02-.12s.02-.12.05-.19c.05-.12.1-.24.14-.39.02-.1.05-.24.07-.36.05-.17.1-.29.1-.39.24-.68.31-1.13.27-1.47v-.07l.12-.22s.05-.19.05-.39c.07-.12.12-.24.12-.39.07-.1.1-.22.14-.34,0-.07.02-.14.07-.24,0-.07.07-.17.12-.27.05-.12.1-.22.12-.31.07-.17.12-.43.12-.63.07-.22.19-.55.22-.8.53-1.37.6-1.62.72-2,.12-.17.1-.36.1-.48,0-.02.02-.05.05-.05l.17-.14-.02-.14s.02-.05.05-.1c.07-.19.17-.43.17-.63.05-.1.1-.22.14-.34.1-.24.17-.43.19-.6.17-.12.53-.34.89-.41.17-.02.55-.14.87-.36l.84-.29c.63-.19,1.01-.34,1.16-.34s.34-.07.6-.17c.22-.07.46-.17.75-.24,1.23-.43,3.35-1.09,4.15-1.21.72-.24,1.09-.34,2.46-.7,1.81-.65,3.62-1.11,6.34-1.64.27-.02.7-.05,1.01-.14,0,.22-.02.53-.05.82-.02.58-.07,1.28-.07,1.86-.27,2.44.1,2.63.22,2.68l.27.1.12-.1c-.02.31-.02.72-.02,1.13.02.41.02.82.02,1.16,0,.39-.02.7,0,.92-.12,1.11-.1,4.1.12,4.58.07.1.1.39.02.89v.77c0,.36,0,.75-.02,1.04,0,.31,0,.65-.07.84-.1-.99-.22-1.76-.22-1.78l-.02-.12-.31-.27-.22.17s-.1.14-.1.34h-.05s0,.07.02.19c-.05,1.69.6,6.68.65,6.8.1.12.19.75.24,1.04.1.34.19.68.29.99.19.65.29,1.01.39,1.18,1.23,2.89,1.64,3.67,3.23,5.33.19.22.39.51.43.58.27.51,1.52,1.54,1.57,1.57.31.17.89.65,1.25.92.31.27.7.48.94.6.1.07.17.12.19.12l.12.1h.12c.07,0,.43.07,1.18.36.92.29,1.3.41,1.52.41.34.07.94.14,1.16.12.51.07,1.28.05,1.98,0l1.09-.05.72-.31c.05,3.45.34,6.54.94,9.62l.58,2.77.05.07c.19.22.36.51.51.8.19.36.39.72.68.99.1.07.19.17.27.24.19.19.43.41.77.51.05.02.14.1.22.14.29.22.72.53,1.13.29.05,0,.24.1.34.14.17.07.36.19.55.19.07,0,.14-.02.22-.05.58-.14.7-.22.87-.65.05-.07.07-.19.14-.31l.05-.1-.02-.12c-1.11-5.86-.65-11.89-.1-17.53.12-.53.22-1.3.31-2.05.1-.87.22-1.76.34-2.17.12-.19.24-.48.22-.65-.02-.65.12-1.42.29-2.29l.12-.58c.19-1.33.36-1.83.53-2.32.14-.43.31-.89.46-1.91.02-.31.17-.75.31-1.18.05-.14.1-.27.12-.41,6.27,3.79,14.11-1.37,17.46-4.7,2.41-2.53,5.43-6.32,6.66-9.29.72-1.06,1.45-2.7,2.07-4.12.36-.8.68-1.57.94-2.05.43-.36.77-1.45,1.23-2.99.19-.63.36-1.23.51-1.54.82-2.73,2.22-9.45-2.12-13.19ZM126.36,241.43c.02-.17.05-.46.1-.75l.14-.41h.05c-.02.24-.05.46-.05.65-.07.22-.12.46-.17.7-.02-.02-.05-.05-.07-.05v-.14ZM126.34,232.43v.22s-.02-.07-.05-.1c.02-.05.05-.07.05-.12ZM126.05,244.28s-.07-.05-.1-.05h-.07c.02-.12.05-.24.05-.31l.07-.12c.02-.07.05-.12.07-.14s.05-.05.07-.05c-.02.29-.07.51-.1.68ZM125.9,234.65c.07-.02.12-.05.17-.1-.05.17-.07.34-.1.53-.02-.05-.05-.1-.05-.14l-.1-.12s.07-.1.07-.17ZM125.73,236.29c.02-.14.05-.36.07-.48l.05-.02c-.05.24-.1.46-.12.65v-.14ZM124.98,241.55c.02-.6.07-1.4.12-1.62.12-.19.1-.39.07-.46,0-.02.02-.07.05-.1,0,.46-.05,1.01-.1,1.45-.02.19-.05.39-.07.55-.02.07-.05.17-.07.27v-.1ZM125.08,249.22c.05-.24.1-.51.14-.75.02.02.05.02.07.02s.05-.02.07-.05c-.07.46-.19,1.06-.41,1.91.02-.36.07-.72.12-1.13ZM124.77,242.52s.05-.07.07-.1c-.02.05-.02.1-.05.14l-.02.07v-.12ZM100.17,258.77s-.1-.02-.17-.1l.07-.05s.02.02.05.02c.05.02.07.05.1.07l-.05.05ZM99.49,256.05c.41-.92.8-1.78,1.01-2.24.02,0,.05-.02.05-.05-.34.75-.7,1.52-1.06,2.29ZM102.39,252.33h-.02l-.1.07s-.02-.02-.05-.02l-.05-.05s.02-.02.02-.05l.17.05-.12-.12c.07.02.12.05.17.1l-.02.02ZM102.58,251.49h.02l.02.05s-.05-.02-.05-.05ZM119.49,226.31s.02-.02.02-.05h.02s.1.07.12.14l-.02.02-.02.02s-.1-.05-.12-.12v-.02ZM117.6,229.42v.07l-.19.02-.02-.02c.1,0,.17-.02.22-.07ZM114.28,233.45s.02-.05.05-.05c-.02.05-.02.1-.05.14v-.1ZM112.93,239.21v.07l-.02-.07h.02ZM104.48,259.64v-.02h.02l-.02.02ZM120.47,262.27c0,.14-.02.31-.02.48,0-.27-.02-.36-.02-.39v-.27c0-.1.02-.19,0-.27.07-.17.12-.36.14-.58-.02.34-.05.7-.1,1.01ZM121.08,256.63s0,.07-.02.1h-.02c-.07-.05-.1-.12-.1-.19v-.02s.02-.07.05-.1h.02s.07.12.07.17v.05ZM120.81,248.47c-.14.75-.31,2.19-.48,3.88-.1.8-.19,1.62-.29,2.44v.12h-.02c-.1,0-.24.02-.39.05-.22.02-.43.07-.75.1-.34.1-1.01.24-1.62.27-.46.12-1.13.24-1.45.27l-.6.1c-.94.19-1.5.29-1.88.39l-.1.05c-.1.05-.46.14-.7.19l-.39.1c-.14.05-.31.1-.48.12-.22.02-.41.07-.55.14-.41.1-1.16.31-1.88.53-.77.24-1.54.46-1.81.53-.29.1-.92.31-1.37.41s-.96.27-1.33.39l-.43.12c-.31.12-.51.19-.65.27-.17.02-.34.1-.51.17.51-1.21,1.78-4,2.07-4.63.07-.14.17-.31.31-.58.31-.6.89-1.71,2-4,.17-.55.53-1.18.7-1.4.14-.24.19-.48.22-.6.07-.12.22-.36.6-1.06.65-1.23,1.76-3.3,2.41-4.37.24-.48.53-1.06.63-1.33.1-.1.14-.19.19-.27.29.07.58-.17.7-.31.1-.12.22-.34.41-.63.14-.24.34-.55.53-.87.36-.48.8-1.13,1.06-1.69.31-.46.65-.94.65-.94l.1-.12v-.05c.1-.24.6-1.04,1.45-2.24.51-.6.96-1.33,1.09-1.62.1-.1.17-.24.27-.36.1-.14.19-.27.27-.36l.7-.84c.19-.24.34-.41.41-.53.14-.12.31-.34.6-.65.39-.68,1.21-1.54,2.73-3.14l.53-.58.05,1.13c.05.63.05,1.25.07,1.74,0,.34,0,.63.02.8-.05.14-.07.31-.1.51-.02.1-.02.19-.05.29-.02.12-.05.24-.05.36-.02.17-.07.39-.12.55-.02.34-.17,1.25-.29,1.78v.27c-.02.07-.02.12-.02.17-.05.1-.1.22-.12.36-.02.05-.05.12-.07.19-.1.39-.19.96-.27,1.5-.05.27-.1.53-.12.72v.12c0,.07-.05.24-.07.36-.02.14-.07.29-.1.43-.02.36-.07.63-.07.63l-.02.02.02.07s-.02.1-.05.17c-.02.07-.05.19-.07.29v.12c.05.22,0,.48-.05.63l-.02.05v.07s0,.12-.02.22c-.05.19-.07.46-.1.72-.07.19-.1.41-.12.58-.02.12-.05.27-.07.34l-.07.05-.02.34c-.02.36-.07.82-.24,1.81-.05.34-.1.6-.1.65l-.1,1.54-.31,1.45c-.14.63-.27,1.21-.29,1.52ZM123.25,240.08l-.07.02c.02-.07.02-.12.05-.19.02.07.02.12.02.17ZM123.1,240.92v.1h-.12s.02-.05.02-.07c.02-.05.05-.14.07-.22,0,.05,0,.12.02.19ZM122.4,246.09c.1.19.07.29.07.39-.07.14-.12.34-.19.65,0,.1-.05.24-.1.39-.02.12-.07.24-.1.36.07-.65.07-1.09,0-1.52v-.75c.17-.17.22-.51.34-1.4.05-.36.12-1.06.22-1.64.1-.22.17-.43.22-.65.02-.19.05-.39.05-.51.02-.05.05-.1.05-.14l.02.14c0,.07-.05.27-.1.41l-.02.1c-.02.46-.05.82-.24,2.73,0,.05-.05.22-.07.31-.02.07-.05.14-.07.22-.12.24-.12.58-.07.92ZM122.43,254.58v.05h-.02l.02-.05ZM122.24,256.46s-.1.05-.17.02v-.07l.17.05ZM121.75,250.14c-.02.31-.07.7-.14,1.01.05-.36.07-.63.14-1.01ZM122.14,283.08c-.05-.29-.1-.7-.24-.99-.29-1.13-.58-3.91-.6-6.39l-.02-.96c-.02-.65-.02-1.42-.05-1.93,0-1.04.05-1.91.1-2.12v-.46c.02-.27.05-.6,0-.82v-.17c.02-.31.05-.77.1-.89l.02-.07v-.1s0-.14.02-.31c.02-.27.05-.6.05-.94,0-.43.02-.92.05-1.35,0-.27.02-.51.02-.72.02-.43.05-1.5.12-2.29l.1-1.16c.07-1.04.14-1.71.19-1.91l.14-.07s.1-.02.14-.05h.19c0,.1,0,.27-.02.43,0,.34-.02.92-.05,1.21h-.14l.14.94c0,.12.02.19.02.27h-.17l.05.39v.12c-.02.1-.05.24-.02.39.02.1,0,.41-.05.68-.1.24-.1.75-.07,1.09,0,.1,0,.22-.02.31,0,.05,0,.12.02.12l-.1.07.02.17c0,.14-.1,1.74-.22,2.7-.05,1.76-.1,2.97-.12,3.76-.02,1.04-.02,1.54-.07,1.69,0,.02-.14,3.4.14,3.79.02.05.05.17.02.46-.24,1.83.27,5.04.89,7.14-.14-.43-.34-1.09-.6-2ZM123.42,274.31c-.02.41-.02.77-.02,1.04l-.05-.1h-.02c-.02-.17-.02-.39-.05-.7v-.19s.1-.02.14-.05ZM123.3,273.15s.1-.07.12-.1v.19s-.05-.07-.12-.1ZM123.34,277.56c-.05-.7-.07-1.18-.05-1.4l.07-.1.02-.02v.17c.02.31.02.8.05,1.3-.02.02-.07.02-.1.05ZM123.44,269.53v.29c-.05.22-.05.58-.07.94v.05h-.07c0-.75.07-1.64.1-1.78l.02-.1s0-.12.02-.29h.02c0,.53,0,.72-.02.89ZM123.54,250.72c-.14.24-.17.6-.22.99v.19c-.07.53-.12,1.04-.17,1.47-.05-.14-.12-.24-.29-.24-.1-.02-.17,0-.24.05.07-.46.12-.96.19-1.4l.02-.05-.02-.07c0-.12.02-.34.07-.55.02-.17.05-.36.05-.51.02-.12.02-.22.05-.31.1.12.22.17.29.17h.12c.39-.14.31-.65.27-.82l-.1-.68c.19-.05.31-.19.36-.43-.14,1.18-.27,1.81-.39,2.19ZM124.19,254.7l-.07.07v-.02c-.02-.1,0-.19.05-.24,0,.07.02.1.02.14v.05ZM124.5,244.83c-.1.51-.17.84-.22,1.23-.05.24-.07.53-.14.89-.02.27-.07.53-.1.77.05-.41.07-.75.1-1.01.02-.22.05-.48.05-.53.07-.19.14-.48.19-.84.1-1.06.17-1.4.17-1.42.05-.07.07-.12.1-.19-.02.29-.07.63-.14,1.11ZM124.67,243.53v-.14s.02-.12.05-.22c0,.12-.02.24-.05.36ZM139.6,276.31s.02-.02.05-.02c.05,0,.1,0,.14.02h-.19ZM139.91,292.1s-.05,0-.07-.02l.02-.02.05.05v-.12l.02.1s-.02.02-.02.02ZM143,282.75c-.1,0-.1-.05-.1-.1l.1.1-.02-.19h.02s.05,0,.07.05c.02.1-.02.14-.07.14ZM144.35,277.03c-.05.14-.12.34-.17.53,0-.17.02-.31.05-.46.05-.05.07-.12.1-.19,0,.02.02.05.02.07v.05ZM144.5,254.53c0,.12,0,.14-.07.19l-.1.1-.1-.63c.07-.19.12-.39.17-.58,0,.02.02.02.02.02.05.02.07.05.12.05-.05.29-.1.55-.05.84ZM158.37,246.33c-.05.1-.07.17-.1.24-.02.02-.02.05-.02.07-.07.02-.12.07-.19.12.07-.12.19-.27.31-.43ZM157.06,248.16s-.02.07-.02.1c-.02,0-.05,0-.07.02.05-.05.07-.1.1-.12ZM156.7,248.64v.1s-.07.05-.1.07c.05-.07.07-.12.1-.17ZM156.03,249.8s.05-.12.1-.19c-.05.1-.02.19,0,.27t-.1.14s-.02-.1-.05-.12l.05-.1ZM155.59,250.67c-.31.53-.68,1.11-1.04,1.74-1.23,2-2.63,4.27-3.45,6.27l-.1-.02c2.39-4.87,3.79-7.04,4.58-7.98ZM153.93,255.44s-.07-.02-.12-.02c-.05-.02-.07-.05-.1-.07v-.02s.07.02.12.05c.05,0,.07.02.1.07ZM152.6,257.88v.02c.02.07.02.12,0,.14-.02,0-.02.02-.05.02-.05,0-.1-.05-.14-.17-.02-.1.02-.14.05-.17h.02s.07.05.1.12l-.17.05.19-.02ZM151.47,260.05c-.02.14-.14.27-.22.05,0-.1.02-.14.12-.19t.05,0s.02.02.05.05h.02s0,.05-.02.07l-.22.07.22-.05ZM150.16,260.41c.02-.1.02-.24,0-.24l.14-.05.07-.14c.17-.36.34-.7.48-1.01l.05.02c-.29.51-.55,1.16-.82,1.83.02-.14.05-.27.07-.41ZM146.16,271.24v-.02s.02-.14.07-.24c.1-.22.14-.36.17-.53l.05-.07c.12-.17.14-.39.19-.6.02-.17.05-.39.17-.6.24-.75.53-1.5.82-2.22.34-.87.68-1.74.92-2.6l.17-.43c.34-.92.82-2.15,1.21-2.77.02-.05.07-.1.1-.17-.1.24-.19.48-.27.72-.31.75-.58,1.47-.84,2-.31.72-.58,1.45-.84,2.19-.22.6-.43,1.21-.68,1.83l-.7,2.15c-.27.77-.43,1.3-.55,1.64.02-.07.02-.17.02-.27ZM148.57,267.17s-.05-.02-.05-.07c0-.02,0-.05.02-.07.05.05.1.1.17.12h.1v.05s-.02.02-.05.05c-.05.02-.12,0-.19-.05l.14-.05-.14.02ZM148.04,268.83l-.07.12h-.02s.02-.07.05-.12h.05ZM146.96,272.16c-.05.1-.17.22-.19.02-.02-.14.1-.29.22-.14.02.02,0,.07-.02.1l-.19.05.19-.02ZM145.34,273.73s-.02-.05-.02-.07c.02-.02.05-.02.07-.05-.02.05-.02.07-.05.12ZM145.73,272.54c-.02.1-.12.34-.19.6,0-.02-.02-.05-.02-.07s.05-.12.07-.17c.05-.14.12-.31.12-.48.1-.1.22-.24.24-.48.02-.07.05-.14.1-.19-.12.41-.19.55-.31.8ZM146.09,274.74l-.02.02s-.02-.07-.05-.12l.07.07v.02ZM146.19,274.76s-.02,0-.02.02l-.02-.1.07-.07s0,.1-.02.14ZM146.64,272.86l.17-.07-.19.02c-.05-.14.12-.17.19-.02,0,.07-.12.19-.17.07ZM150,277.8s-.07,0-.12-.02h.14l-.02.02ZM147.58,276.31c-.39-.05-.63-.12-.75-.17.05-.34.14-.63.27-.99.14-.39.27-.8.39-1.33,1.5-5.14,2.75-8.39,4.97-12.98.36-.96.96-1.95,1.57-2.92.63-1.01,1.28-2.05,1.62-3.04.24-.7,1.21-2.29,1.5-2.65l.07-.02c.27-.14.55-.63,1.11-1.57.19-.36.48-.84.6-.99,2.03-3.14,5.96-8.47,9.65-8.68.94.05,1.71,1.71,2.1,3.26.6,2.27.12,4.46-.29,6.39-1.47,6.9-6.13,15.07-11.34,19.92-3.23,2.92-7.96,5.96-11.46,5.76ZM170.45,255.64s-.02.1-.02.12c-.22.12-.27.29-.29.46l-.1.12c-.07.07-.1.17-.12.24l-.02.05s-.05.1-.07.14l-.07.02c.22-.55.43-1.11.63-1.66l-.02.14c-.05.14.02.27.1.36ZM170.4,255.06s.05-.1.07-.17h.07l-.02.14-.12.02ZM169.32,257.83c.07-.19.17-.41.27-.63l.05.19.02.02s-.02.1-.02.14c0,.07-.02.17-.05.17-.1,0-.19.05-.27.1ZM169.58,258.41l-.02.02v-.02h.02ZM169.12,258.29v.05h-.02s0-.02.02-.05ZM157.67,276.28c.07-.1.14-.17.19-.27.05.02.12.02.17.05-.12.07-.24.14-.36.22ZM160.03,274.69l-.02-.05c.07-.07.17-.17.24-.24.1-.1.17-.19.22-.29.14,0,.27-.07.34-.17.1.02.14-.02.22-.05-.31.27-.65.53-.99.8ZM161.28,273.65s.02-.05.02-.07c.05-.02.07-.02.1-.02-.02.02-.07.07-.12.1ZM165.05,269.75c-.29.34-.6.7-.94,1.09.07-.12.1-.24.14-.36,0-.02,0-.07.02-.1.17-.07.27-.24.34-.41.19,0,.34-.1.43-.22.02-.05.05-.1.05-.14.07-.02.14-.1.19-.14-.07.1-.14.19-.24.29ZM172.23,256.36v.05c-.02.12-.05.22-.07.31,0,.1-.02.17-.02.24-.07.29-.19.55-.31.87-.19.43-.39.89-.48,1.35-.48,1.42-.94,2.51-1.3,3.01l-.05.07c-.39,1.06-1.21,2.27-2,3.42-.36.53-.72,1.04-1.04,1.54-.31.46-.84,1.18-1.54,2.05.1-.17.12-.27.14-.36.02-.07.02-.1.12-.17.36-.24.51-.53.39-.8-.02,0-.02-.02-.05-.05.17,0,.29-.07.39-.17l.12-.19-.02-.05c.07-.1.17-.27.29-.41.29-.43.53-.82.53-1.16.31-.22.7-.68.72-1.04.02-.22-.1-.41-.29-.51l-.27-.12-.17.22c-.39.48-1.11,1.45-1.86,2.46-1.18,1.62-2.8,3.81-3.18,4.1l-.02.02c-.63.63-1.59,1.62-2.19,2.27-.05.05-.1.1-.12.14-.17.05-.34.14-.48.34-.1.1-.29.24-.48.36-.36.27-.77.55-1.09.92-.02.02-.07.07-.12.12-.05.02-.12.1-.17.17-.14-.02-.29.05-.36.1l-.07.05s-.1.02-.14.05c-.1.02-.36.12-.48.41-.29-.02-.65.22-.77.34-.14.12-.22.29-.22.43v.19l.19.12s.02.02.05.02c-.05.02-.07.05-.12.05l-.07.05c-.17.1-.6.22-.89.27v-.02l-.1-.19c-.1-.19-.29-.27-.6-.27-.29.02-.46.1-.53.22l-.1.02c-.24.02-.41.12-.53.17-.17.1-.22.12-.48,0-.24-.12-.41-.12-.6-.07v-.02l.02-.07c.1-.05.22-.1.36-.14.05-.02.12-.07.19-.1l.05.05c.22.17.43.02.51-.05.05-.02.19-.12.24-.31.07-.05.14-.1.22-.14.12-.07.24-.14.43-.22,1.01-.36,2.8-1.57,3.98-2.36l.58-.41c1.93-1.59,5.52-5.72,6.37-7.53,1.35-1.88,2.46-3.71,3.47-5.72-.02.14,0,.27.05.34.12.24.31.29.43.29.31,0,.51-.29.7-.65.51-.94.55-1.21.46-1.42l-.02-.02c.31-.1.48-.46.6-.8.17-.43.22-.7.19-.84.07-.12.22-.29.29-.41.22-.29.31-.41.31-.55l.05-.05c.17-.24.19-.41.19-.55,0-.07,0-.1.07-.22.02-.02.05-.05.07-.1.02.07.05.14.07.22l.05.07c.14.24.36.24.51.19.1-.05.19-.12.24-.24-.07.31-.14.58-.22.82ZM172.88,254c-.05.22-.12.43-.17.65.02-.22.02-.41.02-.41,0-.12,0-.14.07-.22.05-.07.1-.14.17-.27-.05.07-.07.17-.1.24ZM173.13,253.23s0-.05-.02-.07h.05s-.02.05-.02.07ZM173.01,252.94c-.07-.07-.17-.12-.24-.14,0-.05,0-.1.02-.19l.02-.07v-.07c0-.07,0-.19-.02-.36,0-.05.02-.17.02-.27.05-.22.1-.46,0-.65.07-.02.17-.07.22-.14.05-.02.07-.07.1-.1,0,.31.07.6.12.87.02.22.1.53.07.6l-.31.53Z"/>
        <path fill="#fff" d="M172.21,256.19c-.05-.22-.27-.36-.51-.31l-.14.07c-.19.14-.34.51-.34.72,0,.14.05.27.12.34l.12.24.31-.1c.17-.05.31-.24.39-.43.02-.1.05-.19.07-.31v-.05c0-.07,0-.12-.02-.17ZM171.61,256.51l-.02-.02s.02,0,.05-.02c0,.02-.02.05-.02.05Z"/>
        <path fill="#fff" d="M247.32,241.7h-.02c.1-.14.17-.39,0-.68l-.1-.12s-.02-.05-.05-.1h.29l-.51-.22c-.1-.07-.22-.14-.41-.17l-.53-.22c-4.8-2.03-14.18,7.69-16.98,11.58.02-.17.05-.31.05-.43l.1-.41c.31-1.52.72-3.4,1.04-4.46.68-2.22,1.57-4.87,2.27-6.75.53-1.57-.39-2.07-1.62-2.53-.51-.24-.82-.14-1.04-.07-.12.05-.17.05-.22.05-.72-.36-1.37.31-1.88.82-.17.17-.39.39-.48.43l-.14.1c-.27.31-.43,1.23-.43,1.3-.63,1.57-1.04,3.14-1.47,4.78l-.34,1.18c-.55,2.27-1.06,4.73-1.62,7.79-1.5,2.77-3.16,5.89-4.85,8.88-.17.24-.31.39-.43.53.07-.12.12-.24.14-.31.7-1.35,1.4-2.63,2.1-3.83.29-.48.55-.99.84-1.5.12-.22.22-.39.31-.53.12-.19.24-.39.31-.63l.02-.07v-.07c-.05-.27-.22-.39-.36-.39-.17-.02-.39.02-.58.43-.27.48-.72,1.11-.89,1.25h-.1l-.12.14c-.99,1.35-1.71,2.6-2.46,3.91-.75,1.3-1.52,2.65-2.6,4.15-2.39,3.28-5.09,6.44-8.39,7.55-1.88-5.6-.39-11.7.84-16.64.53-2.48,1.5-5.4,2.87-8.68.14-.36.39-.82.63-1.3.53-.99,1.11-2.12,1.16-2.97,0-.12.05-.29.1-.48.12-.46.27-1.06.02-1.59l-.19-.8-.82-.7c-.94-1.01-1.86-.99-2.41-.89,0-.17-.12-.29-.19-.34-.48-.31-2.05.24-2.48.58-.58.39-.72.53-.72.89,0,.1,0,.24-.17.6-.17.46-.48,1.04-.75,1.59-.07.14-.14.27-.22.41-.02-.19-.1-.39-.27-.46-.27-.12-.51.02-.72.41-.41-.55-1.66-1.5-2.6-1.91-2.03-.89-2.48-1.04-3.98-1.25-.19,0-.46-.07-.72-.14-.65-.17-1.45-.39-1.71.22-.07.12-.1.14-.46.17-1.11.12-1.93.36-2.41.75-2.36,1.91-4.2,5.6-5.4,8.03l-.27.51c-2.53,4.44-8.01,20.53-4.05,25.35l.07.1.12.02c.07.02.1.07.19.17.07.12.19.27.34.34.02.27.14.39.24.48.05.05.07.07.12.22.41.96,2.22,2.03,3.21,2.22.14.14.39.27.72.27h.12c1.37-.12,3.52-2.17,4.08-3.14l.55-.84c1.5-2.27,2.89-4.41,4.17-7.07,1.52-2.73,3.14-5.96,4.39-8.73-.05.27-.07.46-.07.6-.6,4.53-.58,10.83,2.87,15.17.75.87,2.75,2.68,4.1,2.92,4.85.6,8.1-2.58,11.36-6.25.46-.77.6-1.21.72-1.64.17-.51.31-.99,1.06-2.05.43-.63.6-1.18.8-1.71.12-.41.27-.77.48-1.16.12-.19.58-1.18.53-1.52v-.05c.02-.12.12-.46.19-.65.1-.29.17-.51.19-.68.22-.1.22-.41.24-.72,0-.02.02-.07.05-.12-.27,1.81-.53,3.64-.77,5.45-.19,1.01-.29,2.12-.39,3.18-.07.72-.14,1.45-.24,2.15-.07.63-.12,1.13-.17,1.52-.17,1.64-.17,1.69.22,2.92.19.89.51,1.09.96,1.16.14,0,.19,0,.27.1.27.55.58.58.94.55.24.51.89.53,1.42.58.14,0,.29,0,.39.02.1.07.22.1.34.1.1,0,.19-.02.29-.07.31-.14.6-.48.55-.87-.02-.05,0-.12.02-.22.05-.1.07-.22.07-.31-.02-.14-.1-.24-.14-.29-.07-.12-.12-.58-.05-.84.02-.14.02-.43-.02-1.13-.02-.46-.07-1.21-.02-1.42l.07-.6c.17-1.37.39-2.97.77-4.41l.02-.07-.02-.07s.02-.05.05-.1c.12-.24.27-.82.29-.94.02-.02.02-.05.05-.07h.02c.41-.02.55-.46,1.01-2,.19-.58.41-1.3.55-1.57.19-.46.31-.8.39-1.04.07-.17.12-.31.14-.36l-.02-.02c.46-.55.99-2.24.99-2.27.02-.17.05-.48-.19-.63.36-.7.65-1.3.72-1.66,0-.02.02-.07.05-.1.07-.1.17-.22.19-.39.02-.02.07-.12.1-.17.24-.17.39-.48.58-.87.17-.36.39-.77.6-.92.34-.19.58-.63.84-1.06.14-.27.31-.53.46-.65l.05-.1c1.25-2.15,3.86-4.97,6.61-7.19.19-.02.34-.1.43-.22.05-.07.1-.17.1-.24.24-.05.48-.19.58-.31.1-.07.14-.14.17-.22.24-.19,1.23-.84,1.91-1.28.48-.31.75-.58.94-.77.27-.29.46-.48,1.25-.75.58-.22.6-.19.72-.05.19.27.8.63,1.13.55l.27-.05.05-.22c.1-.29-.14-.51-.31-.68ZM201.25,250.33l.02-.1s.02.02.05.02l-.07.07ZM201.37,247.75v.02c-.82,1.69-1.86,3.57-2.87,5.4-.94,1.69-1.91,3.42-2.65,4.97-.55.94-1.16,1.95-1.74,2.89-.87,1.5-1.69,2.89-2.27,3.83-.1.27-.58.99-1.13,1.74.58-1.13,1.28-2.39,1.95-3.59.92-1.64,1.76-3.18,2.32-4.32.19-.27,1.16-1.78,1.37-2.53l.02-.07-.1-.36-.22-.05c-.27-.07-.48.17-.68.39-.14.24-.19.41-.22.51-.02.1-.05.12-.22.29l-.05.07c-.53.87-1.04,1.76-1.54,2.63-1.3,2.24-2.63,4.56-4.1,6.68-.05.1-.19.31-.36.58-1.78,2.82-2.68,4-3.14,4.46.36-3.71,1.52-8.49,3.04-12.37,1.59-4.51,4.51-10.66,7.48-13.1.07-.05.22-.17.41-.31.39-.31,1.52-1.25,1.93-1.35.6,1.11.72,1.47.72,1.57l.05.14c.77,1.3,1.57,1.59,2,1.74,0,0,.02,0,.05.02-.02.02-.02.07-.07.12ZM224.57,254.07c-.41.96-.87,2-1.18,2.63.17-.94.31-1.91.51-2.89l.48-.89s0,.1.02.17l.17.22h.34c-.12.24-.22.51-.34.77ZM227.18,260.41s-.02-.02-.05-.07h.02l.05.07h-.02ZM227.25,260.41l.02-.1.02-.05s.02.02.02.05v.07l-.07.02ZM227.47,261.3l-.14-.05c.07-.05.19-.1.17.05h-.02ZM228.05,258.92s.07.1.02.12l-.02-.05v-.07ZM228,259.81v-.02l.12.1-.12-.07ZM233.81,248.86l.02-.05.02.02s-.02.02-.05.02ZM234.27,250.04s-.05.02-.07.02c0,.02-.02.02-.05.02h-.02s-.02-.05-.05-.07l.19-.02v.05ZM234.44,248.43s-.05-.02-.05-.05l-.05-.05v-.02s.05.02.07.05c.02.02.02.05.05.07h-.02ZM235.09,247.7s-.05-.05-.07-.1h.02s.05.05.07.07c0,.02.02.05.02.07-.02-.02-.05-.02-.05-.05ZM235.59,247.2h-.02l-.02-.02s-.02-.02-.05-.02l.1-.02v.07ZM239.82,243.55l.05-.02.02.02h-.07Z"/>
        <path fill="#fff" d="M278.53,246.66l-.14-.1c-.17-.12-.36-.14-.55-.07-.43.17-.68.8-.92,1.71,0,.07-.02.12-.02.14l-.02.05s-.07.14-.12.27c-.31.65-.41.89-.43,1.01-.89,2.48-5.79,10.47-7.96,13.43l-.17.22c-3.04,4.05-6.83,9.12-12.25,10.11-.34.05-.63-.02-.89-.27-1.71-1.47-1.74-7.72-1.76-10.4v-.96c.24-8.2,1.88-17.58,5.14-29.52,2.63-.17,7.55-.46,10.15.07-.22.22-.53.46-.68.53-.1.02-1.37.82-1.42,1.25l-.02.24.17.12c.07.07.17.1.27.07,0,.02.02.05.02.07.24.29.7.17,1.01-.05-.02,0-.02-.02-.05-.02l.19-.27h.02l-.12.27-.02.07c.29.24.51.14,1.18-.19,1.16-.48,1.98-1.33,2.07-2.17.05-.46-.07-1.11-.92-1.74-.14-.1-.27-.27-.39-.43-.19-.31-.41-.65-.84-.82-2.22-1.04-5.72-.87-8.78-.75l-.75.02c.53-2.1.99-3.83,1.83-6.01.1-.48.31-1.01.53-1.52.55-1.45,1.23-3.06-.58-4.1-.14-.07-.24-.17-.36-.29-.17-.17-.34-.36-.7-.43-.07-.02-.19-.05-.31-.1l-.19-.07c-.48-.29-1.74-.34-2.36-.19-.29.07-.48.19-.58.34-.1.1-.12.1-.12.1l-.14.02-.1.07c-.41.41-.51.8-.58,1.21-.07.31-.14.68-.41,1.18-1.33,3.21-1.64,4.63-2.03,6.44-.22,1.04-.48,2.22-.99,3.96-4.24.46-7.69,1.04-11.53,1.88l-.14.02c-.99.24-1.86.43-2.12,1.5-.12.31-.02.55.05.75.05.17.12.31.12.6.05.68.22,1.09.51,1.28.36.27.77.14,1.23.02.14-.05.31-.07.51-.12.41-.07,1.18-.27,1.95-.46.77-.19,1.86-.46,2.05-.48l.1-.02c.55-.22,1.66-.31,2.63-.39.6-.05,1.18-.1,1.64-.17.96-.17,1.4-.27,1.69-.36.14-.02.24-.05.36-.07-1.35,5.5-2.32,11.02-3.06,15.7l-.02.24c-.84,6.34-2,15.03.14,21.47.72,2.27,3.23,4.8,5.6,5.69.48.39,1.47.63,2.36.84.19.07.39.12.58.17l.17.02c.34.1.51.12.72.12.17,0,.36-.02.72-.07l.1-.02c6.34-1.33,10.47-6.75,13.36-11.38.12-.27.29-.55.48-.84.46-.72.92-1.5.89-2.19v-.02c.02-.1.05-.19.07-.27.19,0,.34-.17.36-.22.14-.12.19-.29.19-.43l.22-.05v-.19c.19-.14.22-.34.19-.48-.02-.12-.07-.24-.17-.31.1-.12.19-.29.24-.36.17-.24.22-.31.19-.39,0-.1.07-.41.1-.55l.1-.55-.53.14c-.46.12-.8.55-1.01.87-.05.07-.1.12-.1.12-.43.36-.55.63-.7.89,0,.02-.02.05-.05.07l-.22-.31h-.19c-.31,0-.43.22-.6.46-.02.05-.1.17-.12.17l-.07.05c-.14.14-.34.39-.58.65.29-.41.58-.84.87-1.3.53-.8,1.13-1.69,1.78-2.77h.02c1.4-2.32,2.73-4.97,3.38-6.34l.12-.24c.63-1.35,1.59-3.38,1.54-4.65l-.02-.19ZM260.53,229.44c.19-.02.12.12.02.12-.1.02-.22-.12-.02-.12ZM255.69,232.24c.07.07.07.19-.05.17l.05-.17ZM248.21,261.64l-.02-.02h.02v.02ZM248.16,259.69c-.14.02-.14-.27,0-.27.19-.02.1.27,0,.27ZM248.33,258.72s-.05.05-.1.05h-.12v-.07s.07-.02.1-.02c.05,0,.1,0,.12.02v.02ZM254.67,234.41l-.1-.02.02-.05.07.07ZM254.5,234.27l.07.05-.07.05h-.02s.02-.07.02-.1ZM253.37,238.73s.12.1.19.12c-.02.05-.05.12-.07.17-.02.12-.05.19-.07.29v.1s-.05.12-.07.17c-.07.12-.14.24-.17.36-.05.02-.07.02-.1.05.1-.43.19-.84.29-1.25ZM249.32,253.76h-.02c-.02-.12-.07-.22-.14-.27,0-.12.05-.24.07-.29l.07-.1.14-1.23c.34-2.6.72-5.86,1.28-8.44.07-.12.1-.31.1-.51.02-.1.02-.24.05-.31l.02-.05c.14-.17.12-.46.1-.53,0-.07.02-.19.07-.31.05.02.1.05.14.07h.07c-.63,3.11-1.21,6.25-1.62,9.31-.1.84-.22,1.74-.34,2.65ZM252.72,247.97c-.07.05-.14.12-.17.19l-.1.12.05.17s0,.07.02.1c-.14.1-.22.29-.19.48.02.07.07.19.17.27v.02c-.17.22-.29.43-.24.63-.02.1-.05.19-.05.31s.02.24.14.34c.02.05.14.12.34.1v.14c0,.31,0,.63-.07.77-.1.12-.14.22-.17.31-.14.05-.24.17-.31.36-.12.34-.05.55.22.77l.02.02c.07.27.12,1.13.12,1.28-.07.1-.1.24-.12.43-.17-.1-.36-.07-.53.05-.22.14-.34.46-.19.8.02.1.07.19.14.27-.05.1-.1.24-.12.41-.07,0-.14.05-.22.12-.19.27.02.48.1.58,0,0,.02,0,.02.02-.02.05-.05.12-.07.17-.05.31.12.7.29.89v.02c-.17.24-.19.53-.07.7.05.07.1.12.17.17v.29c-.05.58-.12,1.04-.17,1.21-.07.07-.12.17-.12.31l-.22.14-.02.17c0,.1,0,.17.05.24-.12.07-.22.19-.27.34-.07.19,0,.41.12.51.07.14.17.8.17.87-.14.17-.14.39-.14.58,0,.07.02.22-.02.29-.1.19-.27.55.14.8.12.27.17,1.23.07,1.52l-.07.05-.05.12c-.14.36-.02,1.45.12,1.86v.02l-.27-.12c-.02-.19-.07-.43-.1-.7-.14-1.13-.27-1.86-.41-2.12l-.48-.87c-.17-3.21,0-5.91.22-8.37.07-.24.07-.58.07-.94.02-.14.02-.36.02-.53.1.05.22.05.34-.02.19-.14.17-.36.14-.46l-.07-.17c-.07-.1-.14-.17-.22-.24l-.05-.05s-.02-.14.07-.63l.12-.94c.1-.7.22-1.47.27-1.78.05-.7.36-2.75.43-2.97l.05-.12c.27-1.69.58-3.35.92-4.97.19,0,.29-.19.34-.29l.02-.02c.27.27.48.24.65.19.43-.12.53-.72.63-1.28.02-.12.05-.27.07-.34.1-.17.12-.41.12-.82.1,0,.19-.02.29-.05-.05.19-.07.39-.12.58-.07.36-.14.75-.22,1.09-.1.43-.17.8-.19.96-.12.6-.27,1.47-.41,2.39-.19,1.21-.39,2.46-.55,3.23-.14-.05-.31-.05-.46.02ZM267.72,265.57c.14-.05.19-.05.19.05l-.19-.05Z"/>
      </g>
      <path fill="#9dd1a5" fill-rule="evenodd" d="M103.55,119.49c0,1.17-.93,2.13-2.11,2.14-1.17,0-2.13-.93-2.14-2.11l-.12-12.06c0-.76.38-1.42.98-1.8l84.32-54.03c.97-.62,2.24-.36,2.89.58l26.27,33.66c.72.92.56,2.26-.37,2.98-.92.72-2.26.56-2.98-.37l-25.15-32.23-81.71,52.35.11,10.89Z"/>
      <path fill="#9dd1a5" fill-rule="evenodd" d="M240.43,296.74l19.96.08v-7.69c-3.54,2.39-8.36,4.46-14.5,6.22-1.71.49-3.53.95-5.45,1.39h0ZM262.51,301.07l-49.6-.19c-1.11.03-2.06-.8-2.17-1.92-.11-1.17.75-2.2,1.91-2.31,13.27-1.28,23.92-3.07,32.06-5.39,7.87-2.24,13.25-4.94,16.25-8.1.39-.4.93-.66,1.54-.66,1.17,0,2.12.95,2.12,2.12v14.33c0,1.17-.95,2.12-2.12,2.12Z"/>
      <path fill="#fff" fill-rule="evenodd" d="M151.26,300.66c-1.17-.01-2.11-.97-2.1-2.15.01-1.17.98-2.11,2.15-2.1l8.77.12c1.17.01,2.11.97,2.1,2.15-.01,1.17-.98,2.11-2.15,2.1l-8.77-.12Z"/>
      <path fill="#fff" fill-rule="evenodd" d="M171.84,300.66c-1.17-.01-2.11-.97-2.1-2.15.01-1.17.97-2.11,2.15-2.1l8.77.12c1.17.01,2.11.97,2.1,2.15-.01,1.17-.97,2.11-2.15,2.1l-8.77-.12Z"/>
      <path fill="#fff" fill-rule="evenodd" d="M192.41,300.66c-1.17-.01-2.11-.97-2.1-2.15.01-1.17.97-2.11,2.15-2.1l8.77.12c1.17.01,2.11.97,2.1,2.15-.01,1.17-.98,2.11-2.15,2.1l-8.77-.12Z"/>
      <g>
        <g>
          <path fill="#9dd1a5" fill-rule="evenodd" d="M189.7,138.44c4.33,4.96,5.94,11.59,6.15,18.32-3.39-3.82-5.62-5.55-7.34-10.65-.14,1.12-.26,2.26-.47,3.38-1.53-1.63-3.24-3.17-5.06-4.57-.91-.72-1.85-1.39-2.81-2.03-.94-.62-1.89-1.21-2.85-1.76-.18-.11-.36-.21-.54-.31-.09-.06-.18-.1-.27-.14-.41-.24-.84-.47-1.26-.68-.48-.26-.97-.5-1.45-.72-.44-.21-.88-.41-1.32-.61-.58-.26-1.16-.51-1.75-.74-1.05-.44-2.13-.82-3.21-1.18-.36-.11-.7-.23-1.05-.34-.3-.09-.61-.18-.92-.27-.06-.01-.11-.04-.18-.06l-1.11-.3c-.64-.17-1.31-.34-1.99-.5-.1-.03-.21-.06-.33-.07h-.01c-.1-.03-.2-.06-.31-.09-.92-.2-1.86-.34-2.77-.4-.41-.04-.71-.09-1.14.06l-.24-.16c-.53.84-.67,2.5-.87,3.48-.04.18-.07.37-.11.55-.1.48-.2.97-.28,1.45-.17.85-.33,1.69-.47,2.53-.31,1.95-.55,3.89-.65,5.82-.01.14-.01.3-.01.44-.09,2.34.06,4.69.55,7,.51,2.43,1.31,4.74,2.2,7.03-5.07-3.61-8.19-6.9-8.82-13.68-.41-4.57,1.01-8.35,3.81-12.3-3.93,2.88-7.04,5.69-10.1,9.51-.68.85-1.33,1.76-2.02,2.64-.2.28-.41.55-.63.82-.3.38-.61.75-.92,1.11-.82-1.21-1.31-2.47-1.79-3.86-.77,2.26-1.09,4.25-1.22,6.56-2.67,4.15-5.01,8.22-6.46,12.85-2.07-6.49-1.12-14.04,2.23-20.55.38-.75.81-1.49,1.26-2.22.23-.37.47-.72.71-1.08.2-.3.41-.6.62-.88.14-.2.28-.4.44-.58.61-.8,1.26-1.56,1.97-2.29.14-.16.28-.31.44-.45.14-.16.28-.3.44-.44.34-.34.68-.67,1.05-.98.33-.28.65-.57.98-.84.36-.28.71-.55,1.07-.82.18-.13.37-.27.55-.4.43-.31.85-.6,1.29-.85.26-.17.51-.33.78-.47,1.04-.61,2.12-1.14,3.21-1.58,2.58-1.04,5.1-1.25,7.75-1.21-2.24-.71-4.5-1.58-6.82-2.09-4.29-.92-9.22-.28-13.68.65,3.48-3.02,6.62-4.98,11.16-4.91,4.3.07,7.65,2.34,11.11,4.35l-.1-.16c-.91-1.28-2.04-2.34-3-3.58-2.12-2.74-3.15-6.49-2.41-10.15.51-2.47,1.92-4.59,4-6.13,2.04-1.52,4.44-2.29,6.82-2.81-3.24,5.07-5.79,10-4.64,15.73.18.95.43,1.9.74,2.8,2.5-5.79,5.58-12.61,11.69-15.62,3.01-1.48,6.65-2.03,9.63-1.01,1.38.47,2.43,1.24,3.42,2.24-2.71.44-5.55.72-8.18,1.69l1.96,1.04c-5.84,2.41-10.07,6.48-13.05,12.07,1.33-.95,2.67-1.92,4.08-2.73,5.62-3.21,13.19-5.79,19.34-4.96,5.28.72,10.61,4.29,13.36,8.62,1.22,1.92,1.82,4,2.27,6.28-4.97-2.43-9.84-3.99-15.56-4.5-.95-1.12-1.96-2.19-3.02-3.2l-.1,3.12c-5.59-.17-11.2-.27-16.76,1.75,8.61.04,17.5,2.71,22.96,8.99Z"/>
          <path fill="#9dd1a5" fill-rule="evenodd" d="M171.18,212.74c-2.49.09-4.52-.51-5.96-1.11.01-.58.04-1.11.06-1.59.06-1.16.1-2.02.11-2.44.1-2.19.18-4.37.23-6.56.01-.47.01-.94.03-1.41.04-2.66.04-5.31,0-7.95-.04-2.64-.13-5.28-.26-7.92-.11-2.63-.28-5.25-.5-7.88-.21-2.61-.47-5.23-.77-7.82-.3-2.61-.64-5.2-1.01-7.78-.38-2.58-.81-5.15-1.28-7.71-.81-4.66-1.6-9.4-2.91-13.93v-.03c.06-.27.11-.58.17-.91l.09-.55c.23.03.45.06.7.1,1.31,3.62,2.27,7.98,3.22,11.49,3.2,11.73,5.98,23.9,7.37,36.17.62,5.62.75,17.11.71,27.85Z"/>
        </g>
        <g>
          <path fill="#9dd1a5" fill-rule="evenodd" d="M174.39,204.18c.23-15.54-1.01-34.45-4.97-49.06-1.16-4.26-2.51-8.45-4.05-12.57-.55-1.51-1.38-2.98-1.9-4.52l.23.04c.1.03.17.04.27.07h.01c.54.78,1.09,1.7,1.6,2.7.51.98,1.01,2.03,1.46,3.05.54,1.21,1.02,2.37,1.42,3.31,5.41,13.05,7.71,25.31,9.16,39.65.48,4.6.81,9.22.99,13.87.06,1.59.13,5.28.17,9.64-1.59.94-3.11,1.55-4.52,1.9.06-3.79.1-6.92.11-8.09Z"/>
          <g>
            <path fill="#9dd1a5" fill-rule="evenodd" d="M161.61,135.12c.03.07.06.16.09.24.07-.06.14-.11.23-.16-.1-.03-.2-.06-.31-.09ZM180.17,142.89c.97.64,1.9,1.32,2.81,2.03-.91-.72-1.85-1.39-2.81-2.03Z"/>
            <path fill="#9dd1a5" fill-rule="evenodd" d="M182.98,144.92c-.91-.71-1.85-1.39-2.81-2.03.97.64,1.9,1.31,2.81,2.03Z"/>
          </g>
        </g>
      </g>
      <path fill="#9dd1a5" fill-rule="evenodd" d="M276.36,100.08l.18,19.42c0,1.17-.93,2.13-2.11,2.14-1.17,0-2.13-.93-2.14-2.11l-.18-18.77-19.6-23.21-44.43,28.41.03,13.26c0,1.17-.95,2.12-2.12,2.12s-2.12-.95-2.12-2.12l-.03-14.42c0-.77.41-1.45,1.03-1.82l46.94-30.01c.91-.58,2.08-.38,2.76.42h0s21.29,25.21,21.29,25.21c.36.43.52.96.5,1.47Z"/>
      <g>
        <path fill="#fff" fill-rule="evenodd" d="M252.83,103.67l-.11-12.84c.04-1.37-.49-1.68-1.6-.94l-7.52,4.73c-1.28.92-1.92,2.04-1.84,3.38v7.25c.02.67.43.96,1.15.95h7.13c1.73.06,2.73-.71,2.79-2.53Z"/>
        <path fill="#fff" fill-rule="evenodd" d="M235.4,99.79l-1.11.7-2.63,1.65-2.63,1.65-2.16,1.36c-.95.65-.77.94.06,1.03.11.01.2.01.31.01h7.41c1.43.07,2.24-.5,2.26-1.87v-4.16c-.11-.81-.61-.93-1.52-.37Z"/>
        <rect fill="#fff" x="224.15" y="111.04" width="12.77" height="9.58" rx="1.5" ry="1.5"/>
        <rect fill="#fff" x="241.76" y="111.04" width="11.21" height="9.58" rx="1.57" ry="1.57"/>
      </g>
      <polygon fill="#fff" fill-rule="evenodd" points="222.46 70.62 188.41 25.08 85.74 105.32 187.38 39.27 221.4 82.51 255.15 61.18 291.36 104.53 255.1 50.29 222.46 70.62"/>
      <path fill="#fff" fill-rule="evenodd" d="M291.91,104.1l-36.23-54.2c-.22-.34-.63-.41-.96-.22l-32.08,19.99-33.67-45.03c-.22-.31-.68-.36-.99-.14l-102.67,80.27c-.31.24-.36.68-.12.99.22.29.63.36.94.14l101.08-65.7,33.62,42.74c.24.31.68.36.99.14l33.19-20.98,35.79,42.88c.27.29.7.34,1.01.1.29-.24.34-.68.1-.99ZM255.69,60.73c-.22-.27-.6-.34-.92-.14l-33.21,20.98-33.62-42.74c-.22-.29-.63-.36-.94-.17l-88.01,57.21L188.27,26.07l33.62,44.98c.22.29.63.36.94.17l32.05-19.97,28.51,42.62-27.71-33.14Z"/>
      <rect fill="#fffcf8" x="6.59" y="146.27" width="8.05" height="8.26" rx="1.61" ry="1.61" transform="translate(-103.24 51.55) rotate(-45)"/>
      <rect fill="#fffcf8" x="6.67" y="194.75" width="8.05" height="8.26" rx="1.61" ry="1.61" transform="translate(-137.5 65.82) rotate(-45)"/>
      <path fill="#9dd1a5" d="M4.57,167.5h8.21c1.51,0,2.74,1.23,2.74,2.74v8.58c0,1.51-1.23,2.74-2.74,2.74H4.57c-1.51,0-2.74-1.23-2.74-2.74v-8.58c0-1.51,1.23-2.74,2.74-2.74Z" transform="translate(-120.87 57.25) rotate(-45)"/>
      <rect fill="#9dd1a5" x="346.88" y="167.5" width="13.7" height="14.06" rx="2.74" ry="2.74" transform="translate(-19.81 301.23) rotate(-45)"/>
      <rect fill="#fffcf8" x="347.56" y="146.27" width="8.05" height="8.26" rx="1.61" ry="1.61" transform="translate(-3.37 292.66) rotate(-45)"/>
      <rect fill="#fffcf8" x="347.25" y="194.75" width="8.05" height="8.26" rx="1.61" ry="1.61" transform="translate(-37.75 306.64) rotate(-45)"/>
    </g>
  </g>
</svg>