<?xml version="1.0" encoding="utf-8" ?><svg xmlns="http://www.w3.org/2000/svg" xmlns:xlink="http://www.w3.org/1999/xlink" width="2048" height="2048" viewBox="0 0 2048 2048"><path fill="#165959" d="M976.237 0L1072.76 0C1078.97 2.19588 1091.39 2.64772 1098.48 3.04695C1158.4 6.41979 1217.35 16.5744 1275.57 31.6699C1550.28 102.857 1783.65 283.852 1920.94 532.215C1977.48 635.548 2016.27 747.642 2035.69 863.821C2038.69 881.269 2041.02 898.824 2042.68 916.449C2043.54 926.554 2045.76 964.363 2048 971.373L2048 1077.68C2043.77 1095.86 2043.97 1122.01 2041.52 1141.26C2035.8 1184.97 2027.62 1228.34 2017.04 1271.14C1954.39 1518.92 1801.93 1734.61 1589.24 1876.34C1465.03 1957.72 1321.06 2016.43 1173.72 2037.86C1154.87 2040.51 1135.96 2042.68 1117 2044.35C1110.46 2044.91 1080.97 2046.7 1076.7 2048L973.513 2048C959.596 2044.52 931.391 2044.4 916.012 2042.81C501.274 1999.95 139.5 1690.38 34.5044 1286.62C21.9562 1237.75 12.5353 1188.14 6.29892 1138.07C4.21852 1122 3.96597 1086.84 0 1073.75L0 971.439C1.97265 961.1 3.27029 941.605 4.24652 930.57C6.34381 906.864 8.64591 886.063 12.5934 862.582C34.6317 727.42 83.6046 598.064 156.604 482.195C297.203 257.441 519.126 95.6297 776.108 30.4944C815.805 20.6586 859.306 12.2567 899.785 6.67895C915.944 4.75101 932.266 4.09502 948.455 2.74797C956.846 2.0498 968.278 2.06969 976.237 0Z"/><path fill="#FDFDFC" d="M906.301 343.527C928.486 334.029 943.063 329.724 966.665 324.87C941.407 365.62 914.164 409.908 903.461 457.219L905.963 462.427L904.273 464.381C905.058 465.856 905.254 466.162 906.158 467.505C905.459 476.813 903.126 523.032 903.874 530.353L903.688 530.482C903.062 528.929 902.003 510.709 902.982 509.05L902.032 507.76L900.468 508.149C899.419 512.569 900.412 515.777 899.049 521.448C898 543.597 904.602 567.255 910.907 588.161C917.177 577.193 924.529 556.497 930.597 543.76C952.573 497.209 976.601 452.398 1012.22 414.669C1045.88 379.017 1081.48 358.322 1129.02 347.453C1182.14 335.309 1225.26 344.913 1265.04 382.571C1259.85 383.138 1252.07 384.847 1246.71 385.882C1249.65 385.978 1252.43 385.72 1254.96 387.065L1255.1 388.088C1252.35 388.08 1252.94 388.108 1250.27 387.557C1249.29 392.842 1253.55 388.586 1250.01 392.622C1239.52 394.743 1226.47 393.131 1215.82 391.307C1190.85 395.06 1171.16 403.475 1150.94 407.016C1160.41 411.897 1166.38 415.599 1175.04 421.908C1155.55 431.335 1129.88 444.136 1111.88 456.388C1076.36 480.566 1028.3 528.661 1006.55 566.239C1008.33 572.82 1008.23 569.844 1011.77 574.595L1014.75 575.359C1087.7 528.321 1191.58 486.768 1279.11 482.167C1385.41 476.58 1514.06 559.25 1540.07 665.342C1542.91 676.926 1545.71 687.856 1549.98 699.036C1469.22 659.686 1412 646.198 1324.88 633.204C1316.94 626.858 1311.03 619.325 1303.97 612.035C1297.14 604.988 1290.29 599.232 1282.67 593.078C1282.9 605.645 1283.46 620.744 1281.86 633.049C1212.81 630.438 1140.34 630.975 1072.9 648.515C1070.23 653.434 1068.91 653.841 1072.66 658.964C1178.59 664.71 1296.14 703.641 1367.65 784.777C1430.86 856.503 1455.79 953.927 1456.18 1047.49C1410.68 1001.35 1372.91 959.93 1350.41 898.063C1350.38 915.2 1351.44 928.822 1347.01 945.412C1324.35 926.748 1303.95 905.175 1279.86 885.804C1198.71 821.421 1104.91 774.843 1004.56 749.099C986.395 744.427 922.47 728.104 908.03 737.709C901.258 749.527 877.101 872.265 877.256 888.811L879.142 889.733C878.897 913.247 872.273 936.275 877.22 959.948C877.445 961.025 875.612 965.346 875.065 966.486C876.4 969.346 876.796 969.611 878.774 971.979C879.933 980.374 877.442 995.189 877.579 1004.45L875.929 1004.66C877.973 1041.72 899.963 1106.19 914.518 1139.82C841.897 1095.18 794.677 1031.71 787.262 945.183C782.239 886.578 794.679 845.702 822.543 795.386C818.773 794.908 819.781 796.475 816.648 794.506C816.598 792.414 816.596 791.631 816.23 789.584C814.548 792.305 815.721 791.375 813.079 792.883L810.207 791.687C802.639 796.955 789.725 808.464 782.892 814.556C751.178 842.679 721.981 873.518 695.634 906.721C678.964 927.9 665.519 948.629 646.606 968.352C634.97 955.258 628.568 933.638 623.131 917.203C610.475 948.816 608.248 976.75 604.074 1008.84C603.312 1014.7 576.467 1052.2 571.179 1062.55C558.906 1086.58 542.861 1112.24 531.913 1137.35C523.268 1156.01 517.969 1173.26 510.934 1192.11C501.711 1160.71 496.706 1128.21 496.052 1095.49C495.08 981.9 538.993 872.523 618.24 791.143C676.985 731.2 760.422 680.658 846.287 679.706L847.156 678.647L845.609 677.805C841.348 678.058 840.754 678.339 837.044 676.606L837.671 676.59C833.82 672.908 834.521 674.643 833.704 670.403C774.978 649.279 727.676 638.353 664.548 645.358C646.968 647.309 625.616 651.518 609.057 652.853L608.017 652.93C598.825 655.581 579.856 658.797 569.286 661.167C578.114 654.452 587.016 647.834 595.99 641.314C612.06 625.879 650.06 604.796 671.974 597.762C720.95 582.045 765.063 587.362 811.633 607.726C832.004 616.635 849.693 627.712 869.101 637.59C869.82 634.842 870.016 631.106 870.288 628.209C861.239 617.77 847.822 603.18 840.558 591.893C813.181 549.348 801.343 498.371 812.593 448.479C823.189 401.488 850.988 375.802 890.06 351.314C887.29 347.863 885.379 346.804 888.251 343.143C893.174 341.32 901.135 342.519 906.301 343.527Z"/><path fill="#165959" d="M877.256 888.811L879.142 889.733C878.897 913.247 872.273 936.275 877.22 959.948C877.445 961.025 875.612 965.346 875.065 966.486C876.4 969.346 876.796 969.611 878.774 971.979C879.933 980.374 877.442 995.189 877.579 1004.45L875.929 1004.66C870.171 975.135 873.298 918.694 877.256 888.811Z"/><path fill="#165959" d="M903.461 457.219L905.963 462.427L904.273 464.381C905.058 465.856 905.254 466.162 906.158 467.505C905.459 476.813 903.126 523.032 903.874 530.353L903.688 530.482C903.062 528.929 902.003 510.709 902.982 509.05L902.032 507.76L900.468 508.149C899.419 512.569 900.412 515.777 899.049 521.448C897.084 505.013 900.018 472.833 903.461 457.219Z"/><path fill="#165959" d="M810.207 791.687C818.6 784.745 827.55 778.505 836.966 773.029C832.255 780.245 826.929 788.044 822.543 795.386C818.773 794.908 819.781 796.475 816.648 794.506C816.598 792.414 816.596 791.631 816.23 789.584C814.548 792.305 815.721 791.375 813.079 792.883L810.207 791.687Z"/><path fill="#FDFDFC" d="M595.99 641.314C593.287 646.411 591.539 647.524 590.166 653.367L590.521 653.744L590.651 652.778C595.523 653.49 600.563 648.614 608.017 652.93C598.825 655.581 579.856 658.797 569.286 661.167C578.114 654.452 587.016 647.834 595.99 641.314Z"/><path fill="#165959" d="M1215.82 391.307C1226.07 389.239 1236.37 387.43 1246.71 385.882C1249.65 385.978 1252.43 385.72 1254.96 387.065L1255.1 388.088C1252.35 388.08 1252.94 388.108 1250.27 387.557C1249.29 392.842 1253.55 388.586 1250.01 392.622C1239.52 394.743 1226.47 393.131 1215.82 391.307Z"/><path fill="#165959" d="M1006.55 566.239C1008.33 572.82 1008.23 569.844 1011.77 574.595L1014.75 575.359C1005.8 581.818 998.188 587.481 989.588 594.452C994.64 587.33 1000.98 574.76 1006.55 566.239Z"/><path fill="#165959" d="M1040.13 658.774C1050.56 654.394 1061.97 651.563 1072.9 648.515C1070.23 653.434 1068.91 653.841 1072.66 658.964C1062.38 658.519 1050.2 657.789 1040.13 658.774Z"/><path fill="#165959" d="M870.288 628.209C877.064 635.526 883.946 642.745 890.931 649.862C886.704 647.703 871.686 640.26 869.101 637.59C869.82 634.842 870.016 631.106 870.288 628.209Z"/><path fill="#165959" d="M890.06 351.314C887.29 347.863 885.379 346.804 888.251 343.143C893.174 341.32 901.135 342.519 906.301 343.527L890.06 351.314Z"/><path fill="#165959" d="M833.704 670.403C840.165 672.608 854.559 677.201 859.867 680.139L846.287 679.706L847.156 678.647L845.609 677.805C841.348 678.058 840.754 678.339 837.044 676.606L837.671 676.59C833.82 672.908 834.521 674.643 833.704 670.403Z"/><path fill="#FDFDFC" d="M936.919 766.565C944.58 773.408 955.05 811.593 958.257 823.073C966.19 852.452 973.919 881.886 981.443 911.373C998.236 972.859 1013.92 1034.64 1028.48 1096.69C1040.72 1151.09 1052.06 1205.68 1062.5 1260.45C1073.97 1320.53 1085.46 1385.65 1091.72 1446.51C1097.86 1510.86 1100.68 1575.48 1100.18 1640.12C1100.15 1652.02 1100.6 1721.74 1098.42 1729.81C1095.58 1732.1 1095.31 1731.32 1090.76 1731.58C1065.73 1729.73 1041.11 1724.21 1017.68 1715.21C1018.04 1683.83 1020.43 1649.78 1021.55 1618.08C1022.91 1572.54 1023 1526.98 1021.82 1481.44C1015.64 1325.03 999.828 1169.16 974.479 1014.69C965.493 961.396 955.551 908.264 944.657 855.324C939.805 831.345 929.8 805.219 931.024 780.562C931.259 775.807 934.204 770.43 936.919 766.565Z"/><path fill="#FDFDFC" d="M989.531 776.231C1001.77 784.174 1006.41 791.633 1012.62 804.29C1022.29 818.387 1044.42 868.606 1051.97 885.862C1145.87 1100.46 1187.15 1344.59 1200.96 1576.92C1202.2 1600.13 1203.3 1623.35 1204.25 1646.57C1204.89 1661.48 1206.31 1677.53 1204.51 1692.33C1203.94 1697.09 1201.61 1700.07 1197.59 1702.51C1184.25 1710.03 1158.34 1721.79 1143.84 1724.83C1143.82 1710.77 1144.63 1697.05 1145.08 1683.03C1146.24 1647.38 1146.56 1611.02 1145.8 1575.37C1143.91 1494.16 1138.6 1413.07 1129.9 1332.3C1110.25 1148.66 1075.06 975.885 1002.32 805.177C998.169 795.479 993.905 785.83 989.531 776.231Z"/><path fill="#FDFDFC" d="M989.531 776.231C1001.77 784.174 1006.41 791.633 1012.62 804.29C1008.23 800.904 1003.02 793.222 999.8 788.475C1000.64 795.803 1003.88 797.118 1002.32 805.177C998.169 795.479 993.905 785.83 989.531 776.231Z"/><path fill="#FDFDFC" d="M1076.7 2048C1080.97 2046.7 1110.46 2044.91 1117 2044.35C1135.96 2042.68 1154.87 2040.51 1173.72 2037.86C1166.44 2052.19 1158.62 2042.21 1149.16 2048L1076.7 2048Z"/></svg>